<?xml version="1.0" encoding="UTF-8" standalone="no"?>
<!DOCTYPE svg PUBLIC "-//W3C//DTD SVG 1.1//EN" "http://www.w3.org/Graphics/SVG/1.1/DTD/svg11.dtd">
<!-- Created with Vectornator (http://vectornator.io/) -->
<svg height="100%" stroke-miterlimit="10" style="fill-rule:nonzero;clip-rule:evenodd;stroke-linecap:round;stroke-linejoin:round;" version="1.1" viewBox="0 0 841.995 595.35" width="100%" xml:space="preserve" xmlns="http://www.w3.org/2000/svg" xmlns:vectornator="http://vectornator.io" xmlns:xlink="http://www.w3.org/1999/xlink">
<defs/>
<g id="Layer-1" vectornator:layerName="Layer 1">
<g opacity="1" vectornator:layerName="Line 1">
<path d="M322.625 311.469C316.285 311.469 311.125 316.598 311.125 322.938C311.081 345.556 310.59 368.194 310.5 390.812C310.5 397.508 315.929 402.937 322.625 402.938C329.321 402.938 334.75 397.508 334.75 390.812C334.66 368.193 334.138 345.556 334.094 322.938C334.094 316.598 328.965 311.469 322.625 311.469Z" fill="#007aff" stroke="none"/>
</g>
<g opacity="1" vectornator:layerName="Line 2">
<path d="M375.969 311.469C369.629 311.469 364.5 316.598 364.5 322.938C364.456 345.556 363.934 368.194 363.844 390.812C363.844 397.508 369.273 402.937 375.969 402.938C382.665 402.938 388.094 397.508 388.094 390.812C388.004 368.193 387.513 345.556 387.469 322.938C387.469 316.598 382.308 311.469 375.969 311.469Z" fill="#007aff" stroke="none"/>
</g>
<path d="M281.407 274.815C281.407 235.931 312.655 204.409 351.202 204.409C389.749 204.409 420.998 235.931 420.998 274.815C420.998 313.699 389.749 345.22 351.202 345.22C312.655 345.22 281.407 313.699 281.407 274.815Z" fill="#3395ff" fill-rule="nonzero" opacity="1" stroke="#007aff" stroke-linecap="butt" stroke-linejoin="round" stroke-width="10" vectornator:layerName="Oval 1"/>
<g opacity="1" vectornator:layerName="Line 3">
<path d="M393.531 292.375C364.607 292.415 335.705 292.637 306.781 292.656C304.005 292.656 301.75 294.911 301.75 297.688C301.75 300.464 304.005 302.687 306.781 302.688C335.705 302.707 364.607 302.961 393.531 303C396.464 303 398.844 300.62 398.844 297.688C398.844 294.755 396.464 292.375 393.531 292.375Z" fill="#007aff" stroke="none"/>
</g>
<g opacity="1" vectornator:layerName="Line 4">
<path d="M322.625 231.062C319.849 231.062 317.594 233.317 317.594 236.094C317.574 248.999 317.352 261.907 317.312 274.812C317.312 277.745 319.693 280.125 322.625 280.125C325.557 280.125 327.938 277.745 327.938 274.812C327.898 261.907 327.676 248.999 327.656 236.094C327.656 233.317 325.401 231.063 322.625 231.062Z" fill="#007aff" stroke="none"/>
</g>
<g opacity="1" vectornator:layerName="Line 5">
<path d="M375.969 231.062C373.192 231.062 370.938 233.317 370.938 236.094C370.918 248.999 370.696 261.907 370.656 274.812C370.656 277.745 373.036 280.125 375.969 280.125C378.901 280.125 381.281 277.745 381.281 274.812C381.242 261.907 381.019 248.999 381 236.094C381 233.317 378.745 231.063 375.969 231.062Z" fill="#007aff" stroke="none"/>
</g>
</g>
</svg>
